<svg id="圖層_1" data-name="圖層 1" xmlns="http://www.w3.org/2000/svg" viewBox="0 0 133.38 133.4"><defs><style>.cls-1{fill:#006934;}.cls-2{fill:#fff;}.cls-3,.cls-4{fill:none;stroke-miterlimit:10;}.cls-3{stroke:#006934;stroke-width:2px;}.cls-4{stroke:#006636;stroke-width:4px;}</style></defs><path class="cls-1" d="M111.7,88.4a37.78,37.78,0,0,1-11.2-6.8c-.9-.8-5.3-4.8-4.5-6a1,1,0,0,0-.4-1.4.6.6,0,0,0-.4-.1l-57.1.1a.94.94,0,0,0-1,1c-.1,2.4-4.5,5.9-6.2,7.4A23.89,23.89,0,0,1,20,88.3c-1.3.2-.7,2.2.5,1.9,5-1,9.2-3.7,12.9-7.2,1.8-1.7,5.6-5.1,5.7-7.9l-1,1h57l-.9-1.5c-1.3,1.9,1.6,5,2.8,6.4,3.8,4.3,8.9,7.1,14.2,9.3,1.1.4,1.6-1.5.5-1.9Z"/><path class="cls-1" d="M111.5,88.4l-79.9.1H20.1a1,1,0,1,0,0,2l80-.1h11.4a1,1,0,0,0,0-2l-79.9.1H20.1a1,1,0,1,0,0,2l80-.1h11.4a1,1,0,0,0,0-2Z"/><path class="cls-1" d="M65.3,75.2V89.3a1,1,0,0,0,2,0V75.2a.94.94,0,0,0-1-1A1,1,0,0,0,65.3,75.2Z"/><path class="cls-1" d="M50.7,74.7c-2.8,4.8-5.7,9.5-8.8,14.2-.7,1.1,1,2.1,1.7,1,3-4.7,5.9-9.4,8.8-14.2a1,1,0,0,0-1.7-1Z"/><path class="cls-1" d="M91.4,88.8a136.61,136.61,0,0,1-8.5-14.2c-.6-1.1-2.3-.1-1.7,1a156.68,156.68,0,0,0,8.5,14.2C90.4,90.9,92.1,89.9,91.4,88.8Z"/><path class="cls-1" d="M58,74.9a124.19,124.19,0,0,1-4.7,14.2c-.5,1.2,1.5,1.7,1.9.5a138.84,138.84,0,0,0,4.7-14.2,1,1,0,0,0-1.9-.5Z"/><path class="cls-1" d="M73.1,75.4c.7,2.5,1.2,5,2.1,7.4s2.1,4.7,3.1,7c.5,1.2,2.2.2,1.7-1-1-2.3-2.3-4.6-3.1-7-.6-1.6-1.3-4.8-1.9-7a1,1,0,0,0-1.2-.7,1.21,1.21,0,0,0-.7,1.3Z"/><path class="cls-1" d="M102,88.7c-2.3-2.3-4.8-4.4-7-6.9-1.3-1.5-3.5-4.8-5-6.9-.8-1-2.5,0-1.7,1a74,74,0,0,0,5.3,7.2c2.2,2.5,4.8,4.7,7.1,7a1,1,0,0,0,1.4,0,.9.9,0,0,0-.1-1.4Z"/><path class="cls-1" d="M42.3,74.9A69.89,69.89,0,0,1,37,82.6a55.81,55.81,0,0,1-6.7,6.1c-1,.8.4,2.2,1.4,1.4a52.33,52.33,0,0,0,6.9-6.4,82.29,82.29,0,0,0,5.3-7.8c.8-1.1-.9-2.1-1.6-1Z"/><path class="cls-1" d="M100.3,89v8.8c0,.4.4.6,1,.6s1-.2,1-.6V89c0-.4-.4-.6-1-.6S100.3,88.6,100.3,89Z"/><path class="cls-1" d="M31.1,89v8.8c0,.4.4.6,1,.6s1-.2,1-.6V89c0-.4-.4-.6-1-.6S31.1,88.6,31.1,89Z"/><path class="cls-1" d="M65.5,72.8a228.22,228.22,0,0,1-29.8-1.9,1,1,0,0,0-1.2.7v.5l.8,3.1a1,1,0,0,0,1,.7H97.6a1,1,0,0,0,1-.7l.6-3.1a1,1,0,0,0-.7-1.2H98c-10.9,1.8-21.8,1.9-32.5,1.9a1,1,0,0,0,0,2c11,0,22-.2,32.8-2l-1.2-1.2c-.2,1.4-1,2.9.3,2.3a3.79,3.79,0,0,1-1.5,0c-2.1-.2-4.3,0-6.5,0h-45c-2.1,0-4.4-.2-6.5,0a3.79,3.79,0,0,1-1.5,0c-.5-.2.8,1.1.6,0l-.6-2.4-1.3,1.3a220.28,220.28,0,0,0,30.3,2,1.17,1.17,0,0,0,.9-1.1A1.08,1.08,0,0,0,65.5,72.8Z"/><path class="cls-1" d="M31.5,64H13a.65.65,0,0,1-.6-.6v-.9a.58.58,0,0,1,.6-.6H31.5a.65.65,0,0,1,.6.6v.9Q32,64,31.5,64Zm-1-16.5H14.1a.58.58,0,0,1-.6-.6V46a.65.65,0,0,1,.6-.6H30.5a.56.56,0,0,1,.6.5h0v.9c0,.5-.3.7-.6.7Zm-1,7.9H15a.56.56,0,0,1-.6-.5h0V54a.65.65,0,0,1,.6-.6H29.5a.65.65,0,0,1,.6.6h0v.9a.63.63,0,0,1-.6.5Z"/><path class="cls-1" d="M54.6,51.6l-.6.9a.48.48,0,0,1-.6.2,44,44,0,0,1-8.3-5.1.64.64,0,0,0-.6,0,51,51,0,0,1-8,5c-.2.1-.5.1-.6-.1l-.7-.9a.49.49,0,0,1,.1-.7l.1-.1a27.78,27.78,0,0,0,8.8-5.9.44.44,0,0,1,.5-.1s1.7.2,1.8.7c0,.2-.2.3-.4.4a38.3,38.3,0,0,0,8.2,5C54.7,51.1,54.8,51.4,54.6,51.6ZM52.2,64.2a.47.47,0,0,1-.5.5h0s-1.3.3-1.6,0,0-1.2,0-1.2H39.6s.2,1,0,1.2-1.7,0-1.7,0a.47.47,0,0,1-.5-.5h0V56a.47.47,0,0,1,.5-.5H51.7a.47.47,0,0,1,.5.5h0ZM50.1,61V57.9a.47.47,0,0,0-.5-.5H40a.47.47,0,0,0-.5.5h0V61a.47.47,0,0,0,.5.5h9.5a.56.56,0,0,0,.6-.5Zm-.6-7.9H40.2a.47.47,0,0,1-.5-.5h0v-1a.47.47,0,0,1,.5-.5h9.3a.47.47,0,0,1,.5.5h0v1a.47.47,0,0,1-.5.5Z"/><path class="cls-1" d="M62.7,51.7c-.1.1-.1.2,0,.4a9,9,0,0,1,1.7,4.7,3.34,3.34,0,0,1-.6,2.2,2.35,2.35,0,0,1-2.1.8h0L60.6,59s-.5-.9-.3-1.1.5.1.7.1a1.88,1.88,0,0,0,1.3-.3.84.84,0,0,0,.2-.7,7.75,7.75,0,0,0-1.8-4.6.6.6,0,0,1-.1-.4A32.21,32.21,0,0,0,62,47.6a.38.38,0,0,0-.3-.5H60.5c-.4,0-.5.2-.5.4V64.1a.43.43,0,0,1-.4.4H58.5a.43.43,0,0,1-.4-.4V45.6a.43.43,0,0,1,.4-.4h5.3a.43.43,0,0,1,.4.4h0V47A32.31,32.31,0,0,1,62.7,51.7ZM76.9,60c.2.1.3.2.3.4a5.42,5.42,0,0,1-.6,3.1,3.4,3.4,0,0,1-2.6.8,3,3,0,0,1-1.9-.4,1.65,1.65,0,0,1-.5-1.5V56.8a.43.43,0,0,0-.4-.4H70.1a.43.43,0,0,0-.4.4,8,8,0,0,1-5.2,7.7.44.44,0,0,1-.5-.1l-.8-.8c-.2-.2-.2-.5,0-.6l.1-.1c2.8-1.2,4.3-3.1,4.3-5.6v-.8H65.4a.43.43,0,0,1-.4-.4h0v-1a.55.55,0,0,1,.3-.5H76.4a.43.43,0,0,1,.4.4h0v1a.43.43,0,0,1-.4.4H73.9a.43.43,0,0,0-.4.4V62c0,.3.1.4.4.4.6,0,1-.1,1.1-.3a4.57,4.57,0,0,0,.2-2,.43.43,0,0,1,.4-.4h.1Zm-.7-8.3H75.1a.43.43,0,0,1-.4-.4V49.4a.43.43,0,0,0-.4-.4H67.4a.43.43,0,0,0-.4.4h0v1.9a.43.43,0,0,1-.4.4H65.5a.43.43,0,0,1-.4-.4V47.4a.43.43,0,0,1,.4-.4h3.6a.43.43,0,0,0,.4-.4v-.1c-.1-.2-.2-.5-.4-.9a.37.37,0,0,1,.2-.5h.1l1.2-.2c.2,0,.4.1.4.2a11.11,11.11,0,0,1,.7,1.6c0,.2.2.3.4.3h4.2a.43.43,0,0,1,.4.4h0v3.9C76.6,51.5,76.5,51.7,76.2,51.7Zm-2.5,1H68.1a.43.43,0,0,1-.4-.4h0V51.2a.43.43,0,0,1,.4-.4h5.6a.43.43,0,0,1,.4.4h0v1.1a.43.43,0,0,1-.4.4Z"/><path class="cls-1" d="M99.4,59.3H87.2a.22.22,0,0,0-.2.2h0v2.7a.22.22,0,0,0,.2.2h0a22.91,22.91,0,0,0,2.8-.7c.1,0,.3,0,.3.1v.1l.1,1.2a.22.22,0,0,1-.2.2A43.56,43.56,0,0,1,85,64.4c-.1,0-.2,0-.3-.2l-.5-1.3c.5-.2.7-.4.7-.8V59.5a.22.22,0,0,0-.2-.2H83.3a.22.22,0,0,0-.2.2,12.31,12.31,0,0,1-1.6,4.9.19.19,0,0,1-.3,0h0l-1.1-1a.19.19,0,0,1,0-.3,8.92,8.92,0,0,0,1.2-4.5V53.4a.22.22,0,0,1,.2-.2H99.2a.22.22,0,0,1,.2.2h0v1a.22.22,0,0,1-.2.2H83.3v1H98.4c.3,0,.3,1.3,0,1.3H83.3v1H99.5a.22.22,0,0,1,.2.2h0v1C99.7,59.2,99.6,59.3,99.4,59.3Zm-1.1-7H81.9a.22.22,0,0,1-.2-.2h0V46.5a.22.22,0,0,1,.2-.2h4.7s-.3-1.3,0-1.3h1.9c.3,0,0,1.3,0,1.3h3.1s-.3-1.3,0-1.3h1.9c.3,0,0,1.3,0,1.3h4.8a.22.22,0,0,1,.2.2h0V52c0,.2-.1.3-.2.3ZM86.6,48.7v-1h-3v1Zm0,2.2v-1h-3v1Zm5-2.2v-1H88.5v1Zm0,2.2v-1H88.5v1Zm8,12.5-.5,1.2c0,.1-.1.2-.2.1a14.61,14.61,0,0,1-8.8-4,.19.19,0,0,1,0-.3l.1-.1,1.3-.5h.2a10.71,10.71,0,0,0,2.2,1.5h.2a25.43,25.43,0,0,0,2.8-1.6.19.19,0,0,1,.3,0l1.1.8a.37.37,0,0,1,.1.3l-.1.1a19.41,19.41,0,0,1-1.7,1c-.1.1-.2.2-.1.3l.1.1a13.52,13.52,0,0,0,2.9.5.22.22,0,0,1,.2.2c0,.3-.1.3-.1.4Zm-3-14.7v-1H93.5v1Zm0,2.2v-1H93.5v1Z"/><path class="cls-1" d="M121.3,63.9a.68.68,0,0,1-.7.7h0s-1,.2-1.3,0,0-.8,0-.8h-14s.2.7,0,.8a5.58,5.58,0,0,1-1.3,0,.68.68,0,0,1-.7-.7h0v-18a.68.68,0,0,1,.7-.7h16.6a.68.68,0,0,1,.7.7h0Zm-2-2.6V47.7a.68.68,0,0,0-.7-.7H106a.68.68,0,0,0-.7.7h0V61.3a.68.68,0,0,0,.7.7h12.7a.67.67,0,0,0,.6-.7Zm-2.5-4.5h-4.4a.76.76,0,0,0-.5.2l-.6.6c-.2.1-.2.3-.2.5v.6a.68.68,0,0,0,.7.7h.2c.3-.1.7-.6,1.1-.4.2.1.1,1,.1,1a.75.75,0,0,1-.5.7,25.54,25.54,0,0,1-2.8.8.66.66,0,0,1-.8-.5l-.3-.8a1,1,0,0,0,.4-.7V59c-.8.4-1.5.7-2.1,1a.81.81,0,0,1-.9-.3l-.1-.2a.59.59,0,0,1,.3-.9.1.1,0,0,0,.1-.1,12.89,12.89,0,0,0,3.3-1.7h-2a.68.68,0,0,1-.7-.7h0V53.7a.68.68,0,0,1,.7-.7h9a.68.68,0,0,1,.7.7h0v2.4a.68.68,0,0,1-.7.7Zm1.1-4.6H106.7a.68.68,0,0,1-.7-.7h0a.68.68,0,0,1,.7-.7h4.7v-1h-4a.68.68,0,0,1-.7-.7h0a.68.68,0,0,1,.7-.7h4s-.2-.8,0-.8h1.9c.2,0,0,.8,0,.8h4a.68.68,0,0,1,.7.7h0a.68.68,0,0,1-.7.7h-4v1H118a.68.68,0,0,1,.7.7h0a.85.85,0,0,1-.8.7Zm-2.4,3.2V54.3h-6.4v1.1Zm2.7,5.5-.2.2a.74.74,0,0,1-.9.1c-1.5-1-2.4-1.4-4.9-2.9-.2-.2.8-.8.8-.8a.66.66,0,0,1,.7-.2,6.66,6.66,0,0,0,1.2.6.75.75,0,0,0,.8-.1l.7-.6a.61.61,0,0,1,.8-.1l.3.2a.69.69,0,0,1,.3.9c0,.1-.1.1-.1.2h0a.77.77,0,0,0-.1,1l.1.1.5.3a.65.65,0,0,1,.2.9c-.1.2-.1.2-.2.2Z"/><path class="cls-1" d="M92.3,37.4c-1.4,1.3-2.5,3.8-1.7,5.6a13.15,13.15,0,0,1,6.8-4.8c-1.6.8-4.6,2.7-5.9,5.8,1.6,1.3,4.4,1.4,6.7-1.9,3.2-4.6,5.1-5.8,5.1-5.8S96.9,33.4,92.3,37.4Z"/><path class="cls-1" d="M88.8,40.5a3.2,3.2,0,0,1,1,3.2A7.14,7.14,0,0,0,85.9,41a7.26,7.26,0,0,1,3.4,3.3c-.9.7-2.5.8-3.8-1.1a13.23,13.23,0,0,0-2.9-3.3C82.5,40,86.2,38.3,88.8,40.5Z"/><path class="cls-2" d="M52.5,108.6l.6.2a53.34,53.34,0,0,0-7.2,4.4l-.2-.1a2.65,2.65,0,0,1,.6-.5A54.92,54.92,0,0,1,52.5,108.6Z"/><path class="cls-2" d="M42.6,116.4l-1,1A9.43,9.43,0,0,1,42.6,116.4Z"/><path class="cls-2" d="M41.6,117.3c-.3.3-.6.7-.9,1A9,9,0,0,0,41.6,117.3Z"/><path class="cls-2" d="M36.4,124.7l-.1.2h0c0-.1,0-.2.1-.2Z"/><path class="cls-2" d="M11.9,102.3a47.43,47.43,0,0,0,3.7,5.1A27.78,27.78,0,0,1,11.9,102.3Z"/><path class="cls-3" d="M63.9,103.6c-7.9-2.8-19.3-4.8-31.2-4.7a116.37,116.37,0,0,0-15.5,1.6c1,.3,2,.7,3.1,1.1"/><path class="cls-3" d="M20.6,101.6c5.6.3,11.4.9,15.1,1.4,6.4,1,18,4.9,18,4.9a66.09,66.09,0,0,0-7.8,5.2"/><path class="cls-3" d="M10.6,98.9c1.4.3,7.4,2.1,9.2,2.7l.3.1a157.18,157.18,0,0,1,15.2,6.4q5.25,2.55,9.9,5.1l.4.1a48.73,48.73,0,0,0-10.1,11.1"/><path class="cls-3" d="M49.2,128.9a94.53,94.53,0,0,1,8.6-9.3,83,83,0,0,1,8.2-6.1,75.11,75.11,0,0,1,9.6-5.3c6-2.9,16.1-7.5,40.4-7.2h.8"/><path class="cls-3" d="M70.1,132.1V132c4.5-13.2,31.8-25.3,41.9-28.9l10.1-3.1-5.6,1.1"/><path class="cls-3" d="M36,123.6c26.2-36.2,85.7-23.5,85.7-23.5"/><path class="cls-4" d="M12.3,101.7a64.69,64.69,0,1,1,111-3.6,58.61,58.61,0,0,1-6.7,9.8h0a64.53,64.53,0,0,1-44.2,23.3c-.6.1-4.4.2-5.7.2A64.09,64.09,0,0,1,49.3,129h0a71.84,71.84,0,0,1-12.5-4.9h0s-2-1.1-2.9-1.7A63.57,63.57,0,0,1,16,106.8v-.1A49.85,49.85,0,0,1,12.3,101.7Z"/></svg>