<svg id="圖層_1" data-name="圖層 1" xmlns="http://www.w3.org/2000/svg" viewBox="0 0 58.21 58.21"><defs><style>.cls-1{fill:#006934;}.cls-2{fill:#fff;}.cls-3,.cls-4{fill:none;stroke-miterlimit:10;}.cls-3{stroke:#006934;}.cls-4{stroke:#006636;}</style></defs><path class="cls-1" d="M52.21,26.64a18.81,18.81,0,0,1-5.64-3.42c-.45-.41-2.67-2.42-2.27-3a.51.51,0,0,0-.2-.71.3.3,0,0,0-.2,0l-28.74,0a.48.48,0,0,0-.5.51c-.05,1.2-2.27,3-3.12,3.72a12,12,0,0,1-5.49,2.87c-.65.1-.35,1.11.25,1a13.31,13.31,0,0,0,6.49-3.63c.91-.85,2.82-2.56,2.87-4l-.5.5H43.85l-.45-.76c-.66,1,.8,2.52,1.41,3.23A19,19,0,0,0,52,27.6c.55.2.8-.76.25-1Z"/><path class="cls-1" d="M52.11,26.64l-40.22.05H6.1a.51.51,0,0,0,0,1l40.27-.05h5.74a.51.51,0,0,0,0-1l-40.22.05H6.1a.51.51,0,0,0,0,1l40.27-.05h5.74a.51.51,0,0,0,0-1Z"/><path class="cls-1" d="M28.85,20v7.09a.51.51,0,1,0,1,0V20a.48.48,0,0,0-.5-.51A.51.51,0,0,0,28.85,20Z"/><path class="cls-1" d="M21.5,19.74c-1.41,2.42-2.87,4.79-4.43,7.15-.35.56.51,1.06.86.51,1.51-2.37,3-4.74,4.43-7.15a.5.5,0,0,0-.86-.51Z"/><path class="cls-1" d="M42,26.84a68.23,68.23,0,0,1-4.28-7.15c-.3-.55-1.16-.05-.85.51a78.42,78.42,0,0,0,4.27,7.15C41.49,27.9,42.34,27.4,42,26.84Z"/><path class="cls-1" d="M25.18,19.85A62.84,62.84,0,0,1,22.81,27c-.25.61.76.86,1,.25a70.19,70.19,0,0,0,2.36-7.14.53.53,0,0,0-.35-.61.51.51,0,0,0-.6.36Z"/><path class="cls-1" d="M32.78,20.1c.35,1.26.6,2.51,1,3.72s1.06,2.37,1.57,3.53c.25.6,1.1.1.85-.51-.5-1.16-1.16-2.31-1.56-3.52-.3-.81-.65-2.42-1-3.53a.51.51,0,0,0-.6-.35.62.62,0,0,0-.35.66Z"/><path class="cls-1" d="M47.32,26.79c-1.15-1.16-2.41-2.21-3.52-3.47-.65-.76-1.76-2.42-2.52-3.47-.4-.51-1.25,0-.85.5A34.79,34.79,0,0,0,43.1,24c1.1,1.26,2.41,2.37,3.57,3.53a.5.5,0,0,0,.71,0,.45.45,0,0,0-.06-.71Z"/><path class="cls-1" d="M17.27,19.85a36.26,36.26,0,0,1-2.66,3.87,27.53,27.53,0,0,1-3.38,3.07c-.5.4.21,1.11.71.71a25.93,25.93,0,0,0,3.47-3.23,40.37,40.37,0,0,0,2.67-3.92c.4-.56-.45-1.06-.81-.5Z"/><path class="cls-1" d="M46.47,26.89v4.43c0,.2.2.3.5.3s.51-.1.51-.3V26.89c0-.2-.21-.3-.51-.3S46.47,26.74,46.47,26.89Z"/><path class="cls-1" d="M11.54,27.42v4.43c0,.2.2.3.5.3s.5-.1.5-.3V27.42c0-.2-.2-.3-.5-.3S11.54,27.27,11.54,27.42Z"/><path class="cls-1" d="M29,18.79a114,114,0,0,1-15-1,.51.51,0,0,0-.6.35v.26l.4,1.56a.5.5,0,0,0,.5.35H45.11a.5.5,0,0,0,.5-.35l.31-1.56a.53.53,0,0,0-.36-.61h-.25a99.35,99.35,0,0,1-16.36,1,.5.5,0,1,0,0,1,100.93,100.93,0,0,0,16.51-1l-.6-.61c-.1.71-.51,1.46.15,1.16a1.94,1.94,0,0,1-.76,0c-1-.1-2.16,0-3.27,0H18.33c-1.06,0-2.21-.1-3.27,0a1.94,1.94,0,0,1-.76,0c-.25-.1.41.56.31,0l-.31-1.21-.65.66a111.59,111.59,0,0,0,15.25,1,.6.6,0,0,0,.46-.55A.56.56,0,0,0,29,18.79Z"/><path class="cls-2" d="M22.41,36.81l.3.1a26.34,26.34,0,0,0-3.62,2.21l-.1,0a1.33,1.33,0,0,1,.3-.25A26.92,26.92,0,0,1,22.41,36.81Z"/><path class="cls-2" d="M17.43,40.73l-.51.51A4.91,4.91,0,0,1,17.43,40.73Z"/><path class="cls-2" d="M16.92,41.19c-.15.15-.3.35-.45.5A4.51,4.51,0,0,0,16.92,41.19Z"/><path class="cls-2" d="M14.3,44.91l-.05.1h0s0-.1.05-.1Z"/><path class="cls-3" d="M27.58,34.52a48.25,48.25,0,0,0-15.71-2.37c-2.61.1-8.28.31-10.89.76"/><path class="cls-3" d="M1.62,32.91C15.32,33.34,23,36.46,23,36.46"/><path class="cls-3" d="M1.62,33.68c.7.16,9.92,1.24,16.76,5.82"/><path class="cls-3" d="M20.75,47a47.6,47.6,0,0,1,4.33-4.69,43.62,43.62,0,0,1,4.12-3.07A38.09,38.09,0,0,1,34,36.61c3-1.46,8.1-3.78,20.33-3.63h.4"/><path class="cls-3" d="M31.27,48.64v0c2.26-6.65,16-12.74,21.09-14.55l3.87-1.7L54.62,33"/><path class="cls-3" d="M14.1,44.36c13.19-18.22,43-11.84,43-11.84"/><path class="cls-4" d="M56.5,32.78c-10,13.83-16.29,14.75-24.95,15.5-.3,0-2.22.1-2.87.1a32.1,32.1,0,0,1-8.76-1.21h0a36.35,36.35,0,0,1-6.29-2.46h0s-1-.56-1.46-.86a32,32,0,0,1-9-7.85v0a13.56,13.56,0,0,1-1.68-2.83"/><path class="cls-4" d="M5.05,44.58A28.6,28.6,0,1,1,54.13,43a25.72,25.72,0,0,1-3,4.33h0A28.55,28.55,0,0,1,31.63,57.63c-.27,0-1.95.08-2.52.08a28.27,28.27,0,0,1-7.7-1.06h0a32.31,32.31,0,0,1-5.52-2.16h0S15,54,14.6,53.73a28,28,0,0,1-7.91-6.89v-.05A20.44,20.44,0,0,1,5.05,44.58Z"/></svg>