<svg id="圖層_1" data-name="圖層 1" xmlns="http://www.w3.org/2000/svg" viewBox="0 0 383.2 431.84"><defs><style>.cls-1{fill:#60ad34;stroke:#62b62f;stroke-miterlimit:10;}.cls-2{fill:#fff;}</style></defs><path class="cls-1" d="M249.89,286.43a132.2,132.2,0,0,1-35.62,39.43h0c4.71-8.1,8.39-15.29,8.6-15.73-.52.56-11.67,12.65-20.6,23.66a159.05,159.05,0,0,1-51.76,19.1,55.22,55.22,0,0,1,3.65-6.07c8.43-11.23,26-42.58,26.59-43.56-.73.75-21.67,22.38-30.7,33.54-4.3,5.3-9.11,12.35-13,18h0c-2.88.28-5.7.47-8.44.59a122.54,122.54,0,0,1-22.72-1c1.18-29.48,25.49-62.84,87.59-71.08C210.89,281,230.32,282.62,249.89,286.43Z"/><path class="cls-1" d="M263,257a148.78,148.78,0,0,1-7.5,18.9C200,263.33,145.14,273.7,111.81,304.69c5.7-15.62,12.16-33.63,18.85-53.26,9.05-3.66,28.6-9.45,43.77-16.31,21.48-9.71,45.61-22.29,46.37-22.68-.57.14-37.42,9.64-59.06,18.61-5.28,2.19-18.51,6.45-27.61,10.11h0c2.43-7.25,4.87-14.7,7.31-22.29,3.78-11.76,7.48-23.74,11.05-35.62h0c9.27-3.85,26.24-10,38.55-18.7,19.43-13.71,32.34-24.71,32.73-25-.73.27-23.92,9-44.27,21.71-4.4,2.76-15.44,7.5-23.88,11.48C175.09,106.79,204.92,39.1,204.92,39.1S167.36,104.41,145,169.44c-4.53-8.43-12-20.63-14.24-26-9.13-22.21-22.92-42.78-23.35-43.43.12.51,4.21,17,12,39.42,5.51,15.88,17.56,32.53,22.06,40.32h0c-4,11.73-7.92,23.6-11.7,35.36-2.55,7.94-5.27,16.12-8.09,24.4-5.23-8.33-13.89-20-17-25C92.32,194.65,67.9,165.46,67.52,165c.39.75,12.67,25,24.48,45.44,8.44,14.58,21.15,30.87,26.27,39h0c-7.49,21.65-15.34,43.28-22,61.68-3.54-6.6-12.94-16.85-16.69-22.88-12.48-20.06-51.32-69.67-51.32-69.67s21.29,44.56,33.29,65.28c8.84,15.27,23.59,35.87,28.5,44.48-2.7,7.5-5,14.05-6.81,19.28-52.32-22.54-103.52-85-75.11-173.46C38.59,79.35,215.79,5.28,215.79,5.28S293.5,162.1,263,257Z"/><path class="cls-2" d="M246.58,352.7l-2.05-.26.67-.29C245.6,352.29,246.07,352.48,246.58,352.7Z"/><path class="cls-2" d="M373.52,345.6c-20.21,22.11-75.69,76.9-135.74,84.87-75.49,10-123.34-37.28-129.62-57.79,4.55-.52,10.56-1.14,17.75-1.87h0c4.79,1.38,23.16,11.07,36.35,16.47,15.72,6.43,49.08,17.41,50.38,17.84-1.38-.72-38.1-19.46-53.32-26.22-4-1.75-12.51-6.76-18.57-9.6,14-1.42,30.64-3.18,48.88-5.36h0c6,3.48,17.52,11.57,28.05,17.22C232.4,389,250,397.44,251.05,398c-1.09-.83-21.37-16-35.57-24.11-3.53-2-11.55-7.39-17.57-10.9q8.72-1.06,17.79-2.27c9.37-1.24,18.85-2.58,28.21-4,6.22,3.54,17,10.26,27.64,14,17.06,6,29.61,9.48,29.61,9.48a243.29,243.29,0,0,0-31.9-16c-3.57-1.44-11.06-5.61-17-8.71l2.36-.36c49.51-7.51,93.11-15.61,95.31-16-1.23.1-15.16,1.33-35.69,3.38,21.8-5.66,36.88-10.61,38.11-10.84-2.25.2-49.56,11.4-99.7,17.46l-2.39.28c3.87-4.45,9.11-11.35,11.84-13.85a149.61,149.61,0,0,0,20-22.93s-9.53,6.39-21.72,16.3c-8.48,6.89-14.94,17.22-18.4,21.47h0c-9.42,1.13-18.92,2.32-28.28,3.57-6.32.84-12.87,1.66-19.51,2.45,3.53-4.76,8-12.1,10.09-14.94a172.23,172.23,0,0,0,10-15.57h0c4.7-8.1,8.37-15.28,8.59-15.72-.52.56-11.67,12.65-20.61,23.66l-.27.34c-6.46,8-12.41,18.53-15.87,23.19h0c-14.27,1.66-28.62,3.2-41.54,4.56,2-1.79,4-5.5,5.94-9a56.09,56.09,0,0,1,3.66-6.07c8.42-11.23,26-42.58,26.59-43.56-.74.76-21.67,22.38-30.71,33.54-4.3,5.31-9.1,12.36-13,18h0a104.26,104.26,0,0,1-6.33,8.54h0l-8.5.91c-6.08.65-11.37,1.23-15.58,1.72a54.49,54.49,0,0,1-.73-11.55c1.18-29.47,25.48-62.84,87.59-71.07,17.44-2.32,36.88-.73,56.44,3.07,34.85,6.79,70.11,20.62,95.37,32A195.1,195.1,0,0,1,373.52,345.6Z"/><path class="cls-1" d="M383.2,331.35s-4.48,8.56-9.68,14.25c-20.21,22.11-75.69,76.9-135.74,84.87-75.49,10-123.34-37.28-129.62-57.79,4.55-.52,10.56-1.14,17.75-1.87h0c4.79,1.38,23.16,11.07,36.35,16.47,15.72,6.43,49.08,17.41,50.38,17.84-1.38-.72-38.1-19.46-53.32-26.22-4-1.75-12.51-6.76-18.57-9.6,14-1.42,30.64-3.18,48.88-5.36h0c6,3.48,17.52,11.57,28.05,17.22C232.4,389,250,397.44,251.05,398c-1.09-.83-21.37-16-35.57-24.11-3.53-2-11.55-7.39-17.57-10.9q8.72-1.06,17.79-2.27c9.37-1.24,18.85-2.58,28.21-4,6.22,3.54,17,10.26,27.64,14,17.06,6,29.61,9.48,29.61,9.48a243.29,243.29,0,0,0-31.9-16c-3.57-1.44-11.06-5.61-17-8.71l2.36-.36c21.69-3.38,42.69-8.22,59.62-12.63,21.8-5.66,36.88-10.61,38.11-10.84-2.25.2-49.56,11.4-99.7,17.46l-2.39.28c3.87-4.45,9.11-11.35,11.84-13.85a149.61,149.61,0,0,0,20-22.93s-9.53,6.39-21.72,16.3c-8.48,6.89-14.94,17.22-18.4,21.47h0c-9.42,1.13-18.92,2.32-28.28,3.57-6.32.84-12.87,1.66-19.51,2.45,3.53-4.76,8-12.1,10.09-14.94a172.23,172.23,0,0,0,10-15.57h0c4.7-8.1,8.37-15.28,8.59-15.72-.52.56-11.67,12.65-20.61,23.66l-.27.34c-6.46,8-12.41,18.53-15.87,23.19h0c-14.27,1.66-28.62,3.2-41.54,4.56,2-1.79,4-5.5,5.94-9a56.09,56.09,0,0,1,3.66-6.07c8.42-11.23,26-42.58,26.59-43.56-.74.76-21.67,22.38-30.71,33.54-4.3,5.31-9.1,12.36-13,18h0a104.26,104.26,0,0,1-6.33,8.54h0l-8.5.91c-6.08.65-11.37,1.23-15.58,1.72a54.49,54.49,0,0,1-.73-11.55c1.18-29.47,25.48-62.84,87.59-71.07,17.44-2.32,36.88-.73,56.44,3.07,34.85,6.79,70.11,20.62,95.37,32C367.19,328.33,383.2,331.35,383.2,331.35Z"/></svg>